<svg width="139" height="35" viewBox="0 0 139 35" fill="none" xmlns="http://www.w3.org/2000/svg">
<g clip-path="url(#clip0_290_3624)">
<path d="M32.5696 33.7063C23.0985 33.0254 13.6956 32.2763 4.36078 31.5954C4.36078 31.5273 4.36078 31.3911 4.36078 31.323C13.1505 31.0506 21.8721 30.7102 30.798 30.4378C22.4853 29.8931 14.2407 29.3483 5.99608 28.8036C5.99608 28.7355 5.99608 28.5993 5.99608 28.5312C13.9 28.1907 21.8721 27.7822 29.776 27.4417C22.349 26.897 14.8539 26.2841 7.42696 25.7394C7.42696 25.6713 7.42696 25.5351 7.42696 25.467C14.5814 25.0584 21.6676 24.6499 28.8221 24.2413C22.2127 23.6966 15.6034 23.0837 9.06225 22.539V22.2666C15.2627 21.9942 21.3951 21.6538 27.5956 21.3814C21.9402 20.8366 16.2167 20.2238 10.5613 19.6791C10.5613 19.5429 10.5613 19.4748 10.5613 19.3386C16.0123 19.0662 21.4632 18.7257 27.1186 18.4534C21.7358 17.9767 16.5574 17.5682 11.2426 17.0915C13.7637 12.0526 16.1485 7.21797 18.6015 2.17906C18.874 2.65571 19.0103 2.85999 19.0784 3.06427C21.1225 7.28606 23.2348 11.4398 25.2789 15.5935C25.4152 15.9339 25.6877 16.3425 25.9603 16.4106C26.5735 16.5468 27.2549 16.4106 28.0725 16.4106C27.9363 16.0701 27.8 15.8658 27.7319 15.5935C25.5515 11.1674 23.2348 6.80941 21.1225 2.31524C20.3049 0.544817 19.4191 -0.272304 17.5794 6.96555e-05C17.0343 0.068163 16.6936 0.20435 16.4211 0.749097C11.4471 11.2355 6.4049 21.6538 1.36275 32.072C0.885784 33.0254 0.476961 33.9106 0 35.0001C10.902 34.5915 21.6676 34.1829 32.5696 33.7063ZM121.352 26.7608C120.739 28.5312 120.194 30.2335 119.513 31.9359C119.24 32.6168 119.445 32.8892 120.058 33.0935C122.102 33.8425 124.146 34.251 126.258 34.3191C129.188 34.4553 132.118 34.1829 134.639 32.5487C137.501 30.7102 138.25 27.9184 137.774 24.718C137.365 21.9261 135.389 20.6324 132.868 19.9514C132.391 19.8152 131.982 19.7472 131.505 19.611C130.96 19.4748 130.347 19.4067 129.87 19.1343C129.529 18.93 129.256 18.5215 128.984 18.2491C129.324 18.0448 129.665 17.5682 129.938 17.5682C131.369 17.5682 132.868 17.7043 134.299 17.8405C135.184 17.9767 136.002 18.3172 136.888 18.5896C137.569 16.6149 138.25 14.7082 138.932 12.7335C134.639 11.5759 130.483 10.7588 126.326 12.4612C123.26 13.6868 121.421 16.002 121.148 19.3386C120.875 22.7433 122.17 24.8542 125.168 25.8756C125.918 26.1479 126.667 26.2841 127.349 26.4884C128.03 26.6927 128.711 26.8289 129.393 27.1012C129.597 27.1693 129.87 27.5098 129.801 27.7141C129.801 27.9184 129.461 28.2588 129.256 28.3269C128.575 28.4631 127.825 28.5993 127.076 28.5312C125.032 28.5312 123.124 27.8503 121.216 26.8289L121.352 26.7608ZM98.9353 11.9845H97.8451C92.1897 11.9845 86.5343 11.9845 80.8789 11.9845C79.0392 11.9845 79.0392 11.9845 78.7667 13.7549C78.5622 15.1849 78.3578 16.6149 78.1534 18.1129H84.1495C83.4 23.4242 82.6505 28.5993 81.9691 33.7744C82.1735 33.7744 82.2417 33.9106 82.3098 33.9106C84.6265 33.9106 87.0113 33.9106 89.3279 33.9106C89.9412 33.9106 89.9412 33.502 90.0093 33.0935C90.6907 28.3269 91.3721 23.5604 91.9853 18.8619C92.0534 18.3172 92.2578 18.0448 92.8711 18.0448C94.3701 18.0448 95.9372 18.0448 97.4363 18.0448C97.7088 18.0448 98.1176 17.7724 98.1176 17.6363C98.3902 15.7977 98.6627 13.9592 98.9353 11.9845ZM73.0431 12.0526C72.8387 12.0526 72.7024 11.9845 72.6343 11.9845C70.3176 11.9845 68.001 11.9845 65.6843 11.9845C65.0711 11.9845 65.0029 12.3931 64.9348 12.8016C64.1171 18.8619 63.2314 24.8542 62.3456 30.9145C62.2093 31.8678 62.073 32.8892 61.9368 33.9106C62.4137 33.9106 62.7544 33.9106 63.0951 33.9106C66.2294 33.9106 69.4319 33.9106 72.5662 33.9106C74.1333 33.9106 75.7005 33.9106 77.1995 33.9106C77.4039 33.9106 77.8809 33.7063 77.8809 33.5701C78.2216 31.7316 78.426 29.8931 78.7667 27.9864C78.3578 27.9864 78.0853 27.9864 77.8127 27.9864C75.8368 27.9864 73.8608 27.9864 71.8848 27.9864C70.8627 27.9864 70.8627 27.9865 70.999 27.0331C71.2716 24.8542 71.6123 22.7433 71.8848 20.5643C72.2936 17.7724 72.7025 14.9806 73.1113 12.1207L73.0431 12.0526Z" fill="white"/>
<path d="M32.5696 33.7061C21.6676 34.1147 10.902 34.5232 0 34.9999C0.476961 33.9104 0.953921 33.0252 1.36275 32.0719C6.4049 21.6536 11.4471 11.2353 16.4211 0.817013C16.6936 0.272266 17.0343 0.136079 17.5794 0.0679855C19.4191 -0.204388 20.3049 0.544639 21.0544 2.17888C23.1667 6.67304 25.4152 11.031 27.6637 15.4571C27.8 15.6614 27.8681 15.8656 28.0044 16.2742C27.2549 16.2742 26.5735 16.3423 25.8922 16.2742C25.6196 16.2742 25.3471 15.7976 25.2108 15.4571C23.0985 11.3034 21.0544 7.0816 19.0103 2.92791C18.874 2.72363 18.7377 2.45125 18.5333 2.04269C16.0804 7.0816 13.6956 11.9162 11.1745 16.9551C16.5574 17.4318 21.7358 17.8404 27.0505 18.317C21.4632 18.5894 16.0123 18.9299 10.4931 19.2022C10.4931 19.3384 10.4931 19.4065 10.4931 19.5427C16.1485 20.0874 21.8721 20.7003 27.5275 21.245C21.327 21.5174 15.1946 21.8579 8.99412 22.1302V22.4026C15.6034 22.9474 22.2127 23.5602 28.7539 24.1049C21.5995 24.5135 14.5132 24.9221 7.35882 25.3306C7.35882 25.3987 7.35882 25.5349 7.35882 25.603C14.7858 26.1477 22.2809 26.7606 29.7078 27.3053C21.8039 27.6458 13.8319 28.0544 5.92794 28.3948C5.92794 28.4629 5.92794 28.5991 5.92794 28.6672C14.1725 29.212 22.349 29.7567 30.7299 30.3014C21.8721 30.6419 13.0824 30.9143 4.29265 31.1867C4.29265 31.2548 4.29265 31.3909 4.29265 31.459C13.6275 32.14 23.0304 32.8209 32.5015 33.5699L32.5696 33.7061Z" fill="white"/>
<path d="M121.352 26.7606C123.26 27.782 125.168 28.3949 127.212 28.463C127.962 28.463 128.643 28.3949 129.393 28.2587C129.597 28.2587 129.87 27.8501 129.938 27.6458C129.938 27.4416 129.733 27.1011 129.529 27.033C128.847 26.7606 128.166 26.6244 127.485 26.4202C126.735 26.2159 125.986 26.0797 125.304 25.8073C122.306 24.7859 120.944 22.7431 121.284 19.2704C121.557 15.9338 123.397 13.6186 126.463 12.3929C130.687 10.6906 134.844 11.5077 139.068 12.6653C138.387 14.7081 137.705 16.6147 137.024 18.5213C136.138 18.249 135.321 17.9085 134.435 17.7723C133.004 17.568 131.505 17.4999 130.074 17.4999C129.733 17.4999 129.393 17.9085 129.12 18.1809C129.393 18.5213 129.665 18.9299 130.006 19.0661C130.483 19.3384 131.096 19.4065 131.641 19.5427C132.118 19.6789 132.527 19.747 133.004 19.8832C135.525 20.5641 137.569 21.8579 137.91 24.6497C138.319 27.8501 137.637 30.642 134.775 32.4805C132.186 34.1147 129.324 34.3871 126.395 34.2509C124.282 34.1828 122.17 33.7062 120.194 33.0252C119.581 32.8209 119.376 32.5486 119.649 31.8676C120.262 30.1653 120.875 28.5311 121.489 26.6925L121.352 26.7606Z" fill="white"/>
<path d="M98.8671 11.9844C98.5945 13.9591 98.3901 15.7976 98.0494 17.6361C98.0494 17.8404 97.5725 18.0447 97.368 18.0447C95.869 18.0447 94.3019 18.0447 92.8029 18.0447C92.1896 18.0447 91.9852 18.249 91.9171 18.8618C91.2357 23.6283 90.6225 28.3949 89.9411 33.0933C89.9411 33.5019 89.873 33.9104 89.2597 33.9104C86.943 33.9104 84.5582 33.9104 82.2416 33.9104C82.1734 33.9104 82.1053 33.9104 81.9009 33.7743C82.6504 28.5992 83.3318 23.4241 84.0813 18.1128H78.0852C78.2896 16.5466 78.494 15.1167 78.6984 13.7548C78.971 11.9844 78.971 11.9844 80.8107 11.9844C86.4661 11.9844 92.1215 11.9844 97.7769 11.9844H98.8671Z" fill="white"/>
<path d="M72.975 12.0524C72.5662 14.9124 72.1574 17.7042 71.7486 20.496C71.476 22.675 71.1353 24.7859 70.8628 26.9649C70.7265 27.9182 70.7265 27.9182 71.7486 27.9182C73.7246 27.9182 75.7005 27.9182 77.6765 27.9182C77.9491 27.9182 78.2898 27.9182 78.6304 27.9182C78.3579 29.8248 78.0853 31.6633 77.7447 33.5019C77.7447 33.6381 77.3358 33.8423 77.0633 33.8423C75.4961 33.8423 73.929 33.8423 72.43 33.8423C69.2956 33.8423 66.0932 33.8423 62.9589 33.8423C62.6182 33.8423 62.3456 33.8423 61.8005 33.8423C61.9368 32.7528 62.0731 31.7995 62.2094 30.8462C63.027 24.7859 63.9128 18.7937 64.7986 12.7334C64.7986 12.2567 64.8667 11.9163 65.5481 11.9163C67.8648 11.9163 70.1814 11.9163 72.4981 11.9163C72.6344 11.9163 72.7025 11.9163 72.9069 11.9844L72.975 12.0524Z" fill="white"/>
<path fill-rule="evenodd" clip-rule="evenodd" d="M93.7568 33.7742L93.7568 33.7742L93.6206 33.6381C93.6826 33.7 93.7304 33.7337 93.7642 33.7521C93.7617 33.7595 93.7593 33.7668 93.7568 33.7742ZM93.7642 33.7521C93.8047 33.7742 93.825 33.7742 93.825 33.7742H101.116C101.32 33.7742 101.661 33.5018 101.729 33.2976C101.933 32.855 102.104 32.4123 102.274 31.9697C102.444 31.5271 102.615 31.0845 102.819 30.6419C102.955 30.3695 103.296 30.0972 103.569 30.0972H108.679C109.156 30.0972 109.428 30.3015 109.428 30.7781C109.456 31.0777 109.505 31.3773 109.554 31.6769C109.627 32.1263 109.701 32.5758 109.701 33.0252C109.701 33.638 109.973 33.8423 110.587 33.8423H116.923C117.06 33.8423 117.179 33.8253 117.298 33.8083C117.417 33.7912 117.537 33.7742 117.673 33.7742V33.2976C117.026 29.8588 116.361 26.403 115.697 22.9472C115.033 19.4915 114.368 16.0358 113.721 12.5972C113.653 11.9843 113.38 11.8481 112.835 11.8481H104.727C104.25 11.8481 103.909 12.0524 103.705 12.5291C102.104 15.9678 100.485 19.3895 98.8671 22.8112C97.2489 26.2329 95.6306 29.6546 94.0294 33.0933C93.898 33.3558 93.83 33.5551 93.7642 33.7521ZM107.793 18.5213H108.066H108.134C108.206 19.2438 108.298 19.9471 108.388 20.6414C108.468 21.2559 108.547 21.8633 108.611 22.4707C108.632 22.6871 108.661 22.9104 108.69 23.1362C108.752 23.6209 108.815 24.1171 108.815 24.5816C108.815 24.7859 108.543 25.1944 108.406 25.1944H105.136C105.659 23.9242 106.142 22.6949 106.617 21.4841C107.007 20.4882 107.393 19.5047 107.793 18.5213Z" fill="white"/>
<path fill-rule="evenodd" clip-rule="evenodd" d="M59.2113 33.8423H60.029L60.0971 33.7742V33.2295C59.4498 29.7907 58.7854 26.3349 58.1211 22.8791C57.4568 19.4234 56.7924 15.9677 56.1451 12.5291C56.0089 11.9162 55.7363 11.8481 55.2594 11.8481H47.0829C46.5378 11.8481 46.2652 12.0524 46.0608 12.5291C42.8584 19.2703 39.656 26.0795 36.4536 32.8888L36.4535 32.889C36.4057 33.0801 36.3243 33.2712 36.233 33.4858C36.1941 33.5771 36.1535 33.6726 36.1128 33.7742H43.676C43.8123 33.7742 44.0849 33.4337 44.2211 33.2295C44.3225 32.9661 44.4178 32.7028 44.5125 32.4413C44.736 31.8236 44.956 31.216 45.2432 30.6419C45.3795 30.3695 45.7883 30.0972 46.0608 30.0972H51.103C51.58 30.0291 51.8525 30.3015 51.8525 30.7781C51.8525 31.1526 51.9036 31.5101 51.9547 31.8676C52.0058 32.2251 52.0569 32.5826 52.0569 32.9571C52.0569 33.638 52.3295 33.8423 53.0108 33.8423H59.2113ZM50.0809 18.5213H50.3535C50.3624 18.616 50.3714 18.7107 50.3805 18.8054C50.6325 20.8206 50.8825 22.8376 51.0768 24.9104C51.0855 24.9823 51.0943 25.0543 51.103 25.1264H51.0968C51.0989 25.1491 51.1009 25.1718 51.103 25.1945H47.4236C47.4325 25.1718 47.4415 25.1491 47.4504 25.1264H47.4236C47.6305 24.639 47.831 24.1548 48.0271 23.6731C48.2418 23.1353 48.4564 22.6006 48.671 22.068C48.808 21.7224 48.944 21.3778 49.0797 21.0338C49.4111 20.1937 49.741 19.3575 50.0809 18.5213Z" fill="white"/>
</g>
<defs>
<clipPath id="clip0_290_3624">
<rect width="139" height="35" fill="white"/>
</clipPath>
</defs>
</svg>
